<svg xmlns="http://www.w3.org/2000/svg" viewBox="0 0 48 48">
  <path d="M5 13 h13 l4 4 h19 a3 3 0 0 1 3 3 v20 a3 3 0 0 1 -3 3 H5 a3 3 0 0 1 -3 -3 V16 a3 3 0 0 1 3 -3 z" fill="#f6b93b" stroke="#d68910" stroke-width="1.5"/>
  <path d="M5 21 h38 a3 3 0 0 1 3 3 v16 a3 3 0 0 1 -3 3 H5 a3 3 0 0 1 -3 -3 V24 a3 3 0 0 1 3 -3 z" fill="#ffd873" stroke="#e0a90d" stroke-width="1.2"/>
  <ellipse cx="24" cy="33" rx="8.5" ry="10" fill="#2d2438"/>
  <ellipse cx="24" cy="35" rx="5.4" ry="7" fill="#fff"/>
  <circle cx="24" cy="25.5" r="5" fill="#2d2438"/>
  <ellipse cx="24" cy="26.5" rx="2.7" ry="2.3" fill="#fff"/>
  <polygon points="24,26 21.8,29 26.2,29" fill="#ffcc00"/>
  <circle cx="22.2" cy="24.6" r="0.85" fill="#222"/>
  <circle cx="25.8" cy="24.6" r="0.85" fill="#222"/>
</svg>
