<svg xmlns="http://www.w3.org/2000/svg" viewBox="0 0 48 48">
  <path d="M5 13 h13 l4 4 h19 a3 3 0 0 1 3 3 v20 a3 3 0 0 1 -3 3 H5 a3 3 0 0 1 -3 -3 V16 a3 3 0 0 1 3 -3 z" fill="#f6b93b" stroke="#d68910" stroke-width="1.5"/>
  <path d="M5 21 h38 a3 3 0 0 1 3 3 v16 a3 3 0 0 1 -3 3 H5 a3 3 0 0 1 -3 -3 V24 a3 3 0 0 1 3 -3 z" fill="#ffd873" stroke="#e0a90d" stroke-width="1.2"/>
  <g transform="translate(24 32) rotate(-10)">
    <rect x="-11" y="-9" width="13" height="19" rx="2" fill="#fdfaf0" stroke="#ff3b30" stroke-width="1.1"/>
  </g>
  <g transform="translate(24 32) rotate(10)">
    <rect x="-2" y="-9" width="13" height="19" rx="2" fill="#fff" stroke="#1f6feb" stroke-width="1.1"/>
  </g>
  <circle cx="24" cy="26.5" r="1.8" fill="#2ecc71"/>
</svg>
